<svg width="24" height="24" viewBox="0 0 24 24" fill="none" xmlns="http://www.w3.org/2000/svg">
<path d="M17.0001 20C17.0001 18.3431 14.7615 17 12.0001 17C9.2387 17 7.00012 18.3431 7.00012 20M21.0001 17.0004C21.0001 15.7702 19.766 14.7129 18.0001 14.25M3.00012 17.0004C3.00012 15.7702 4.23422 14.7129 6.00012 14.25M18.0001 10.2361C18.6139 9.68679 19.0001 8.8885 19.0001 8C19.0001 6.34315 17.657 5 16.0001 5C15.2318 5 14.5309 5.28885 14.0001 5.76389M6.00012 10.2361C5.38637 9.68679 5.00012 8.8885 5.00012 8C5.00012 6.34315 6.34327 5 8.00012 5C8.76848 5 9.46937 5.28885 10.0001 5.76389M12.0001 14C10.3433 14 9.00012 12.6569 9.00012 11C9.00012 9.34315 10.3433 8 12.0001 8C13.657 8 15.0001 9.34315 15.0001 11C15.0001 12.6569 13.657 14 12.0001 14Z" stroke="#F9FAF9" stroke-width="2" stroke-linecap="round" stroke-linejoin="round"/>
</svg>
